<?xml version="1.0" encoding="UTF-8"?>
<svg version="1.1" xmlns="http://www.w3.org/2000/svg" width="433" height="222">
<path d="M0 0 C23.20264091 18.08396055 37.96055363 42.62692669 42 71.875 C43.0174005 80.30608115 43.18928977 88.43965256 42.375 96.875 C42.31803955 97.53741699 42.2610791 98.19983398 42.20239258 98.88232422 C41.57911849 104.18740133 40.05811432 109.11503247 38.43994141 114.18359375 C38.20580032 114.92444214 37.97165924 115.66529053 37.73042297 116.42858887 C37.15603182 118.24482524 36.57834615 120.06001915 36 121.875 C10.23587502 121.99168372 -15.5282105 122.07991482 -41.29254627 122.13406086 C-53.25477226 122.1598675 -65.2168343 122.19506509 -77.17895508 122.25219727 C-87.60237426 122.30195683 -98.02567474 122.3342731 -108.44920939 122.34544247 C-113.97096139 122.35197384 -119.49237373 122.36737552 -125.01401711 122.40365028 C-130.20720212 122.43749203 -135.39990634 122.4480769 -140.59319115 122.44053841 C-142.50283798 122.44191826 -144.41250026 122.45192087 -146.322052 122.47102737 C-148.9227627 122.49578125 -151.52164067 122.48997082 -154.12239075 122.47627258 C-155.2648946 122.49811889 -155.2648946 122.49811889 -156.43047935 122.52040654 C-158.53861713 122.49023914 -158.53861713 122.49023914 -162 121.875 C-164.83593031 118.43577589 -165.68447479 114.87754697 -166.625 110.5625 C-166.86476563 109.49386719 -167.10453125 108.42523438 -167.3515625 107.32421875 C-170.39595881 91.13023113 -170.44327872 73.78480445 -166 57.875 C-165.6596875 56.6478125 -165.319375 55.420625 -164.96875 54.15625 C-157.12603679 28.50845815 -139.54252675 5.77994709 -115.92626953 -7.27099609 C-78.424387 -26.8130261 -34.62133969 -24.84001508 0 0 Z " fill="#FAFDFD" transform="translate(281,26.125)"/>
<path d="M0 0 C23.20264091 18.08396055 37.96055363 42.62692669 42 71.875 C44.13853363 89.59678276 41.79155947 105.10995943 36 121.875 C28.41 121.875 20.82 121.875 13 121.875 C13.76170819 118.06645906 14.64573516 114.86694156 15.9375 111.25 C22.9019904 90.43250505 21.39001013 68.27368322 11.890625 48.5390625 C1.49271711 27.9674316 -15.26617229 13.28577516 -37.2265625 5.94140625 C-60.85628413 -0.73655856 -84.17839812 0.87779208 -105.81738281 12.88330078 C-118.49836252 20.4465737 -128.8904428 30.97179335 -136 43.875 C-136.53238281 44.78507812 -137.06476563 45.69515625 -137.61328125 46.6328125 C-147.11899579 63.94595016 -149.86175418 87.50036904 -144.6484375 106.5703125 C-143.66938363 109.65120756 -142.54499439 112.64129597 -141.3125 115.62890625 C-140 118.875 -140 118.875 -140 121.875 C-143.60374463 122.02000644 -147.20674242 122.10896763 -150.8125 122.1875 C-152.34874023 122.2503418 -152.34874023 122.2503418 -153.91601562 122.31445312 C-156.68964863 122.35992252 -159.26408064 122.33572233 -162 121.875 C-165.10587361 118.72864015 -165.69603472 114.82451105 -166.625 110.5625 C-166.86476563 109.49386719 -167.10453125 108.42523438 -167.3515625 107.32421875 C-170.39595881 91.13023113 -170.44327872 73.78480445 -166 57.875 C-165.6596875 56.6478125 -165.319375 55.420625 -164.96875 54.15625 C-157.12603679 28.50845815 -139.54252675 5.77994709 -115.92626953 -7.27099609 C-78.424387 -26.8130261 -34.62133969 -24.84001508 0 0 Z " fill="#42B6D3" transform="translate(281,26.125)"/>
<path d="M0 0 C1.22154282 -0.01260864 2.44308563 -0.02521729 3.7016449 -0.03820801 C5.01319046 -0.03011108 6.32473602 -0.02201416 7.67602539 -0.01367188 C9.04456355 -0.01636908 10.41309984 -0.0202534 11.78163147 -0.02526855 C14.64562276 -0.03115504 17.5091139 -0.02263038 20.37304688 -0.00390625 C24.03279249 0.01886234 27.69136327 0.00576986 31.35106564 -0.01819611 C34.1762415 -0.03269624 37.00114191 -0.02802871 39.82632637 -0.01768494 C41.82814934 -0.01374156 43.82998327 -0.02583071 45.83177185 -0.03820801 C57.33264724 0.08019733 57.33264724 0.08019733 61.83618164 4.51757812 C66.82257871 9.87878674 66.41921141 15.29699243 66.36743164 22.23242188 C66.373172 23.92607628 66.373172 23.92607628 66.37902832 25.65394592 C66.38174482 28.03680312 66.3744021 30.41969026 66.35766602 32.80249023 C66.33627433 36.43931988 66.35746812 40.07416949 66.38305664 43.7109375 C66.38041293 46.0306033 66.37528706 48.35026787 66.36743164 50.66992188 C66.37552856 51.75240707 66.38362549 52.83489227 66.39196777 53.95018005 C66.31296837 60.34840623 65.66903543 64.3240965 61.83618164 69.51757812 C57.17021124 73.01705593 52.99779798 73.63533916 47.27661133 73.71044922 C46.16155212 73.72651215 45.04649292 73.74257507 43.89764404 73.75912476 C38.80538662 73.80374424 33.71325692 73.84463321 28.62084961 73.86767578 C25.9378842 73.88099679 23.25568268 73.90882117 20.57299805 73.94970703 C16.69695235 74.00456799 12.82193869 74.02636492 8.94555664 74.04101562 C7.75258972 74.063685 6.5596228 74.08635437 5.33050537 74.10971069 C-1.70238163 74.09193597 -6.92654516 73.51166984 -12.16381836 68.51757812 C-16.19929524 63.24414218 -15.6145935 57.13323792 -15.59741211 50.76757812 C-15.60265396 49.63610352 -15.60789581 48.50462891 -15.61329651 47.33886719 C-15.61970652 44.95183125 -15.61839298 42.56476368 -15.60986328 40.17773438 C-15.60134742 36.53002643 -15.63014096 32.88388177 -15.66186523 29.23632812 C-15.66347726 26.91341193 -15.66289969 24.59049296 -15.65991211 22.26757812 C-15.67114609 21.17993164 -15.68238007 20.09228516 -15.69395447 18.97167969 C-15.638986 12.98752214 -15.35913041 9.14342032 -11.16381836 4.51757812 C-7.40285044 0.97732918 -5.15261508 0.01529303 0 0 Z " fill="#1C68B2" transform="translate(174.163818359375,52.482421875)"/>
<path d="M0 0 C23.20264091 18.08396055 37.96055363 42.62692669 42 71.875 C43.97559867 88.24655948 42.56158096 104.2977581 37 119.875 C36 120.875 36 120.875 33.71484375 120.97265625 C32.34005859 120.95525391 32.34005859 120.95525391 30.9375 120.9375 C30.01839844 120.92847656 29.09929687 120.91945312 28.15234375 120.91015625 C27.44207031 120.89855469 26.73179687 120.88695312 26 120.875 C26.64424333 117.62468273 27.29067263 114.37480394 27.9375 111.125 C28.11990234 110.20460937 28.30230469 109.28421875 28.49023438 108.3359375 C28.66748047 107.44648438 28.84472656 106.55703125 29.02734375 105.640625 C29.18968506 104.82368164 29.35202637 104.00673828 29.51928711 103.16503906 C29.81980168 101.7334359 30.15712404 100.30851359 30.5480957 98.89892578 C33.57131208 85.35896696 31.46702266 68.68593647 26.8984375 55.7578125 C26 52.875 26 52.875 26 48.875 C25.01 48.545 24.02 48.215 23 47.875 C22.296875 46.16015625 22.296875 46.16015625 21.75 43.9375 C19.95669936 38.06513727 16.70297783 33.70820399 13 28.875 C12.37867188 28.03710938 11.75734375 27.19921875 11.1171875 26.3359375 C5.70371271 19.25677816 -0.6785161 11.53950667 -9 7.875 C-9 7.215 -9 6.555 -9 5.875 C-10.98 5.215 -12.96 4.555 -15 3.875 C-15 3.215 -15 2.555 -15 1.875 C-15.99 1.73191406 -15.99 1.73191406 -17 1.5859375 C-20.14499752 0.84063861 -22.86667913 -0.26350171 -25.82006836 -1.55053711 C-48.71119295 -11.5206999 -73.61690297 -12.4579163 -97.09765625 -3.6171875 C-111.55649988 2.15500834 -125.29264849 10.55413077 -135 22.875 C-135.66 22.875 -136.32 22.875 -137 22.875 C-137.20625 23.535 -137.4125 24.195 -137.625 24.875 C-138.82291608 27.48863507 -139.83389157 28.96398874 -141.625 31.125 C-155.61653418 49.20742501 -160.47611871 74.61067217 -157.74511719 96.9609375 C-156.47138871 105.06863329 -154.26603391 112.99783449 -152 120.875 C-155.63 120.875 -159.26 120.875 -163 120.875 C-170.76623293 101.23099906 -171.67987664 78.21262282 -166 57.875 C-165.6596875 56.6478125 -165.319375 55.420625 -164.96875 54.15625 C-157.12603679 28.50845815 -139.54252675 5.77994709 -115.92626953 -7.27099609 C-78.424387 -26.8130261 -34.62133969 -24.84001508 0 0 Z " fill="#1999D7" transform="translate(281,26.125)"/>
<path d="M0 0 C0 0.66 0 1.32 0 2 C-0.99 2.66 -1.98 3.32 -3 4 C-3.33 4.99 -3.66 5.98 -4 7 C-2.68 6.34 -1.36 5.68 0 5 C0.99 5.66 1.98 6.32 3 7 C2.27296875 7.27972656 1.5459375 7.55945312 0.796875 7.84765625 C-12.5069512 13.15213054 -26.15584568 20.34841056 -35.21875 31.8046875 C-35.8065625 32.52914062 -36.394375 33.25359375 -37 34 C-37.66 34 -38.32 34 -39 34 C-39.20625 34.66 -39.4125 35.32 -39.625 36 C-40.82291608 38.61363507 -41.83389157 40.08898874 -43.625 42.25 C-57.61653418 60.33242501 -62.47611871 85.73567217 -59.74511719 108.0859375 C-58.47138871 116.19363329 -56.26603391 124.12283449 -54 132 C-57.63 132 -61.26 132 -65 132 C-72.76623293 112.35599906 -73.67987664 89.33762282 -68 69 C-67.6596875 67.7728125 -67.319375 66.545625 -66.96875 65.28125 C-59.95637358 42.34888388 -44.25604252 18.97252997 -23 7 C-20.13939589 6.17621844 -18.00251917 6 -15 6 C-14.505 7.485 -14.505 7.485 -14 9 C-13.67 7.35 -13.34 5.7 -13 4 C-11.68 3.67 -10.36 3.34 -9 3 C-9 2.34 -9 1.68 -9 1 C-3.375 -1.125 -3.375 -1.125 0 0 Z " fill="#2866AB" transform="translate(183,15)"/>
<path d="M0 0 C3.16654523 2.85264484 4.24841061 5.11462361 4.51757812 9.26782227 C4.54384989 10.95048468 4.54712177 12.6336136 4.53125 14.31640625 C4.5350769 15.20988266 4.53890381 16.10335907 4.54284668 17.02391052 C4.54556192 18.90747203 4.53822793 20.7910715 4.52148438 22.67456055 C4.50004329 25.55668084 4.52131146 28.43631567 4.546875 31.31835938 C4.54423215 33.15104716 4.53910805 34.9837334 4.53125 36.81640625 C4.53934692 37.67690079 4.54744385 38.53739532 4.55578613 39.42396545 C4.46224684 45.3916155 4.46224684 45.3916155 2.09179688 48.51147461 C-1.47239482 51.04775808 -3.61055589 51.35789233 -8 51 C-11.0703125 49.609375 -11.0703125 49.609375 -14.125 47.75 C-15.13820313 47.14671875 -16.15140625 46.5434375 -17.1953125 45.921875 C-19.91360089 44.05920385 -21.92493171 42.55441206 -24 40 C-24.72467956 35.87446723 -24.61674146 31.7669109 -24.57641602 27.58276367 C-24.56255901 25.57106701 -24.59661216 23.56403743 -24.63476562 21.55273438 C-24.63283203 20.27849609 -24.63089844 19.00425781 -24.62890625 17.69140625 C-24.62963135 16.52810791 -24.63035645 15.36480957 -24.63110352 14.16625977 C-23.64961724 9.24212223 -20.51952253 7.14090396 -16.6484375 4.234375 C-15.89820313 3.74453125 -15.14796875 3.2546875 -14.375 2.75 C-13.61960937 2.24984375 -12.86421875 1.7496875 -12.0859375 1.234375 C-7.77455933 -1.31692743 -4.80098152 -1.17918844 0 0 Z " fill="#0B93D7" transform="translate(272,64)"/>
<path d="M0 0 C5.0282068 0.72990099 6.33169405 2.6717106 9.39453125 6.51953125 C10.59303283 8.17340019 11.74204084 9.86306126 12.875 11.5625 C15.74840235 11.20728911 16.75623712 10.69036066 18.76171875 8.53125 C19.65310547 7.30921875 19.65310547 7.30921875 20.5625 6.0625 C21.16449219 5.2478125 21.76648438 4.433125 22.38671875 3.59375 C22.87785156 2.9234375 23.36898437 2.253125 23.875 1.5625 C24.875 0.5625 24.875 0.5625 28.375 0.4375 C31.875 0.5625 31.875 0.5625 32.875 1.5625 C33.28756169 4.9216274 33.39264381 8.30849423 33.5625 11.6875 C33.62244141 12.6259375 33.68238281 13.564375 33.74414062 14.53125 C34.02551975 20.03548826 33.75268787 24.36828299 31.875 29.5625 C29.23286868 29.77672686 27.45983133 29.89668933 25.125 28.5625 C23.14615069 25.39634111 23.17803807 22.25956448 22.875 18.5625 C22.17375 19.5525 21.4725 20.5425 20.75 21.5625 C18.66473002 24.04946505 18.12566481 24.50622831 14.8125 25.25 C10.98765679 24.35482393 10.04595633 22.74140034 7.875 19.5625 C7.215 19.2325 6.555 18.9025 5.875 18.5625 C5.74222656 19.41714844 5.60945313 20.27179688 5.47265625 21.15234375 C5.29605469 22.25707031 5.11945313 23.36179688 4.9375 24.5 C4.76347656 25.60214844 4.58945313 26.70429688 4.41015625 27.83984375 C3.875 30.5625 3.875 30.5625 2.875 31.5625 C0.4375 31.75 0.4375 31.75 -2.125 31.5625 C-4.125 29.5625 -4.125 29.5625 -4.36791992 26.78100586 C-4.36175659 25.04669312 -4.36175659 25.04669312 -4.35546875 23.27734375 C-4.35353516 22.02501953 -4.35160156 20.77269531 -4.34960938 19.48242188 C-4.33736328 18.16822266 -4.32511719 16.85402344 -4.3125 15.5 C-4.31185547 14.18193359 -4.31121094 12.86386719 -4.31054688 11.50585938 C-4.26075279 0.7669355 -4.26075279 0.7669355 0 0 Z " fill="#FEFEFE" transform="translate(95.125,180.4375)"/>
<path d="M0 0 C4.15961472 0.0784833 6.33410409 0.41734108 9.5 3.1875 C10.7375 4.5796875 10.7375 4.5796875 12 6 C13.78926175 7.59045489 15.61658676 9.12790772 17.44921875 10.66796875 C18.68048318 11.72555357 19.85228537 12.85228537 21 14 C21.09087891 12.71802734 21.09087891 12.71802734 21.18359375 11.41015625 C21.26738281 10.30542969 21.35117187 9.20070312 21.4375 8.0625 C21.51871094 6.96035156 21.59992188 5.85820312 21.68359375 4.72265625 C22 2 22 2 23 1 C25.67058851 0.85884839 28.32432238 0.95752893 31 1 C31.02505615 1.63502441 31.0501123 2.27004883 31.07592773 2.92431641 C31.19256789 5.82471542 31.31498393 8.72484349 31.4375 11.625 C31.47681641 12.62402344 31.51613281 13.62304688 31.55664062 14.65234375 C31.76658982 19.52962506 32.18659337 24.18212997 33 29 C32.0625 30.875 32.0625 30.875 30 32 C25.13323667 33.07233768 25.13323667 33.07233768 22 32 C18.85115423 28.99350712 16.47692652 25.5644846 14 22 C11.45861714 18.4544843 11.45861714 18.4544843 8 16 C8.03480469 16.90363281 8.06960938 17.80726563 8.10546875 18.73828125 C8.13253906 19.91777344 8.15960938 21.09726563 8.1875 22.3125 C8.22230469 23.48425781 8.25710938 24.65601563 8.29296875 25.86328125 C8 29 8 29 6.6875 30.9375 C5 32 5 32 1.8125 31.6875 C0.884375 31.460625 -0.04375 31.23375 -1 31 C-2.27036673 25.10549837 -2.18377401 19.24884148 -2.1875 13.25 C-2.19974609 12.19683594 -2.21199219 11.14367187 -2.22460938 10.05859375 C-2.22654297 9.05441406 -2.22847656 8.05023438 -2.23046875 7.015625 C-2.23457764 6.10071289 -2.23868652 5.18580078 -2.24291992 4.24316406 C-2 2 -2 2 0 0 Z " fill="#FEFEFE" transform="translate(274,180)"/>
<path d="M0 0 C1.21880859 -0.01224609 2.43761719 -0.02449219 3.69335938 -0.03710938 C5.43649414 -0.04000977 5.43649414 -0.04000977 7.21484375 -0.04296875 C8.28726318 -0.04707764 9.35968262 -0.05118652 10.46459961 -0.05541992 C13.0625 0.1875 13.0625 0.1875 15.0625 2.1875 C14.8125 5.25 14.8125 5.25 14.0625 8.1875 C10.7342269 9.85163655 7.06516027 9.00617406 3.4375 8.75 C2.63570313 8.69779297 1.83390625 8.64558594 1.0078125 8.59179688 C-0.97429103 8.46201629 -2.95594499 8.32540265 -4.9375 8.1875 C-4.6075 9.1775 -4.2775 10.1675 -3.9375 11.1875 C-2.54724609 11.17009766 -2.54724609 11.17009766 -1.12890625 11.15234375 C0.06863281 11.14332031 1.26617187 11.13429687 2.5 11.125 C3.69496094 11.11339844 4.88992188 11.10179687 6.12109375 11.08984375 C9.0625 11.1875 9.0625 11.1875 10.0625 12.1875 C10.26485666 14.73719386 10.38165246 17.28442964 10.48828125 19.83984375 C10.82013398 22.36277888 10.82013398 22.36277888 13.10546875 23.50390625 C13.75128906 23.72949219 14.39710938 23.95507812 15.0625 24.1875 C15.0625 25.8375 15.0625 27.4875 15.0625 29.1875 C10.3961075 31.5677365 6.16800593 31.45373751 1.0625 31.375 C0.2684375 31.37435547 -0.525625 31.37371094 -1.34375 31.37304688 C-5.332887 31.34312835 -9.04516403 31.16843144 -12.9375 30.1875 C-14.94551831 23.65567032 -15.06250149 18.03832954 -14.625 11.25 C-14.57666016 10.29287109 -14.52832031 9.33574219 -14.47851562 8.34960938 C-13.88864107 -2.17106468 -9.83512962 0.00518457 0 0 Z M-4.9375 20.1875 C-4.9375 21.1775 -4.9375 22.1675 -4.9375 23.1875 C-4.2775 22.8575 -3.6175 22.5275 -2.9375 22.1875 C-2.9375 21.5275 -2.9375 20.8675 -2.9375 20.1875 C-3.5975 20.1875 -4.2575 20.1875 -4.9375 20.1875 Z M1.0625 21.1875 C1.3925 21.8475 1.7225 22.5075 2.0625 23.1875 C3.7125 22.8575 5.3625 22.5275 7.0625 22.1875 C7.0625 21.8575 7.0625 21.5275 7.0625 21.1875 C5.0825 21.1875 3.1025 21.1875 1.0625 21.1875 Z " fill="#FEFEFE" transform="translate(331.9375,180.8125)"/>
<path d="M0 0 C3.56894975 0.04538825 5.16443966 0.74208508 7.671875 3.2734375 C8.70777603 4.46353754 9.72060012 5.67406816 10.7109375 6.90234375 C14.05782371 11.24541821 14.05782371 11.24541821 18.3359375 14.46484375 C18.32433594 13.62179688 18.31273437 12.77875 18.30078125 11.91015625 C18.29175781 10.81445312 18.28273437 9.71875 18.2734375 8.58984375 C18.26183594 7.49929687 18.25023437 6.40875 18.23828125 5.28515625 C18.3359375 2.46484375 18.3359375 2.46484375 19.3359375 0.46484375 C21.9759375 0.46484375 24.6159375 0.46484375 27.3359375 0.46484375 C28.4162636 3.91315737 28.37348691 6.94705719 28.21484375 10.54296875 C28.16650391 11.703125 28.11816406 12.86328125 28.06835938 14.05859375 C28.01228516 15.26515625 27.95621094 16.47171875 27.8984375 17.71484375 C27.84623047 18.936875 27.79402344 20.15890625 27.74023438 21.41796875 C27.61064536 24.43385856 27.47568174 27.44941021 27.3359375 30.46484375 C21.6484375 31.58203125 21.6484375 31.58203125 18.8359375 30.52734375 C15.93294137 28.13237194 14.03978511 25.52061517 11.9609375 22.40234375 C10.02724559 20.09678801 7.96729825 18.88720091 5.3359375 17.46484375 C5.27535156 18.31949219 5.21476563 19.17414063 5.15234375 20.0546875 C5.06855469 21.15941406 4.98476562 22.26414063 4.8984375 23.40234375 C4.81722656 24.50449219 4.73601562 25.60664063 4.65234375 26.7421875 C4.3359375 29.46484375 4.3359375 29.46484375 3.3359375 30.46484375 C0.66534899 30.60599536 -1.98838488 30.50731482 -4.6640625 30.46484375 C-7.42767488 24.51639926 -6.50423987 18.97198035 -5.8515625 12.65234375 C-5.75552734 11.59080078 -5.65949219 10.52925781 -5.56054688 9.43554688 C-4.71812212 0.59856773 -4.71812212 0.59856773 0 0 Z " fill="#FDFEFE" transform="translate(232.6640625,180.53515625)"/>
<path d="M0 0 C3.40074076 3.13270208 4.48369121 6.65574797 5.0546875 11.15234375 C5.065 12.42980469 5.0753125 13.70726562 5.0859375 15.0234375 C5.116875 16.30347656 5.1478125 17.58351562 5.1796875 18.90234375 C4.44476732 23.3070298 3.0137481 24.70035303 -0.4140625 27.4609375 C-6.35406699 30.50337882 -14.12609103 30.38533715 -20.5703125 28.99609375 C-24.07781942 27.69616246 -27.25757156 25.58656466 -29.53125 22.59765625 C-31.80616846 17.0915483 -31.50166197 9.96044874 -29.75 4.32421875 C-27.91457113 1.15610892 -25.07658416 -0.83819263 -21.6640625 -2.06640625 C-14.23956746 -3.6260658 -6.80664707 -3.47763191 0 0 Z M-21.4140625 8.4609375 C-22.3938792 11.18961309 -22.70035581 13.57510096 -22.4140625 16.4609375 C-20.53548117 19.9926704 -19.34263762 21.15814126 -15.5390625 22.3984375 C-12.01727874 22.46887318 -9.63789424 21.85304666 -6.4140625 20.4609375 C-3.78079793 17.82767293 -3.70225615 16.13540649 -3.4140625 12.4609375 C-4.19492227 9.10324051 -4.97221098 7.81687345 -7.6640625 5.6484375 C-13.31475524 3.20836564 -17.30364639 3.76331909 -21.4140625 8.4609375 Z " fill="#FEFEFE" transform="translate(211.4140625,182.5390625)"/>
<path d="M0 0 C0 0.66 0 1.32 0 2 C-0.99 2.66 -1.98 3.32 -3 4 C-3.33 4.99 -3.66 5.98 -4 7 C-2.68 6.34 -1.36 5.68 0 5 C0.99 5.66 1.98 6.32 3 7 C2.27296875 7.27972656 1.5459375 7.55945312 0.796875 7.84765625 C-12.5069512 13.15213054 -26.15584568 20.34841056 -35.21875 31.8046875 C-35.8065625 32.52914062 -36.394375 33.25359375 -37 34 C-37.66 34 -38.32 34 -39 34 C-39.20625 34.66 -39.4125 35.32 -39.625 36 C-41.18059498 39.39402541 -43.19050682 41.99254066 -45.46875 44.9296875 C-47.60462669 47.81747996 -49.29055763 50.8441064 -51 54 C-52 52 -52 52 -53 49 C-54.31337396 47.9739266 -55.64664105 46.97272675 -57 46 C-57.33 45.34 -57.66 44.68 -58 44 C-50.08171905 31.20369496 -40.56851367 20.66431585 -29 11 C-28.44699219 10.5359375 -27.89398438 10.071875 -27.32421875 9.59375 C-23.39137399 6.62556528 -19.77541915 6.32933925 -15 6 C-14.505 7.485 -14.505 7.485 -14 9 C-13.67 7.35 -13.34 5.7 -13 4 C-11.68 3.67 -10.36 3.34 -9 3 C-9 2.34 -9 1.68 -9 1 C-3.375 -1.125 -3.375 -1.125 0 0 Z " fill="#1E71B7" transform="translate(183,15)"/>
<path d="M0 0 C4.25124448 4.17394912 6.32577804 9.63068154 8.6875 15 C9.09033203 15.88945312 9.49316406 16.77890625 9.90820312 17.6953125 C11.72923622 21.78272347 13.37585499 25.53344727 14 30 C13.505 30.495 13.505 30.495 13 31 C8.63521657 30.83212371 6.63131724 30.66369248 3.5625 27.4375 C0.8185791 24.8274289 0.47314111 24.64456997 -3.0625 24.625 C-4.361875 24.74875 -5.66125 24.8725 -7 25 C-7.7425 25.061875 -8.485 25.12375 -9.25 25.1875 C-11.96216434 26.44671916 -13.28820949 28.61572036 -15 31 C-16.98 30.67 -18.96 30.34 -21 30 C-20.7653121 23.66342666 -19.04335312 19.96374857 -15.625 14.671875 C-13.38619571 10.9907641 -11.74654524 7.11762251 -10.078125 3.15234375 C-7.95015694 -1.09588234 -4.31341479 -0.44621532 0 0 Z M-4 11 C-4.33 12.65 -4.66 14.3 -5 16 C-3.68 16 -2.36 16 -1 16 C-1.33 14.35 -1.66 12.7 -2 11 C-2.66 11 -3.32 11 -4 11 Z " fill="#FEFEFE" transform="translate(66,181)"/>
<path d="M0 0 C1c.17949219 -0.01611328 2.35898438 -0.03222656 3.57421875 -0.04882812 C9.90625951 -0.05238945 14.67062178 0.22100242 20.25 3.3125 C19.92 3.9725 19.59 4.6325 19.25 5.3125 C18.26 5.3125 17.27 5.3125 16.25 5.3125 C15.59 6.9625 14.93 8.6125 14.25 10.3125 C13.15667358 10.32651855 13.15667358 10.32651855 12.04125977 10.34082031 C-1.12634987 10.5523815 -13.68225686 10.83132179 -26.39453125 14.47265625 C-29.67577425 15.29392196 -32.38935158 15.38441116 -35.75 15.3125 C-36.74 15.6425 -37.73 15.9725 -38.75 16.3125 C-38.4375 14.375 -38.4375 14.375 -37.75 12.3125 C-36.76 11.9825 -35.77 11.6525 -34.75 11.3125 C-35.08 10.6525 -35.41 9.9925 -35.75 9.3125 C-38.39 9.6425 -41.03 9.9725 -43.75 10.3125 C-43.75 10.9725 -43.75 11.6325 -43.75 12.3125 C-44.389375 12.580625 -45.02875 12.84875 -45.6875 13.125 C-48.08131686 14.19917752 -48.08131686 14.19917752 -48.75 17.3125 C-48.09 17.6425 -47.43 17.9725 -46.75 18.3125 C-47.74 18.6425 -48.73 18.9725 -49.75 19.3125 C-50.41 18.3225 -51.07 17.3325 -51.75 16.3125 C-53.80925139 15.58867533 -53.80925139 15.58867533 -55.75 15.3125 C-38.01012998 5.04070745 -20.6208966 -0.05708997 0 0 Z " fill="#198DCD" transform="translate(217.75,5.6875)"/>
<path d="M0 0 C1.21429688 -0.02578125 2.42859375 -0.0515625 3.6796875 -0.078125 C7.36424746 0.27278547 9.24183858 0.96298098 12.125 3.25 C12.5 5.875 12.5 5.875 12.125 8.25 C11.795 8.58 11.465 8.91 11.125 9.25 C7.75393641 9.24245847 4.39539255 9.17129882 1.02734375 9.03515625 C-3.12548132 8.91596428 -3.12548132 8.91596428 -6.859375 10.5078125 C-8.06733382 12.57992647 -8.27717619 13.85849566 -8.25 16.25 C-8.25773438 16.930625 -8.26546875 17.61125 -8.2734375 18.3125 C-7.97333284 20.2944006 -7.97333284 20.2944006 -6.859375 21.9921875 C-3.70047165 23.99448451 -0.3588209 23.52087501 3.25 23.375 C5.87811142 23.29729931 8.49493255 23.25588382 11.125 23.25 C12.125 24.25 12.125 24.25 12.1875 27.3125 C12.166875 28.281875 12.14625 29.25125 12.125 30.25 C5.81239832 33.19509855 -1.32397923 33.20012539 -8.1015625 31.78515625 C-11.6102092 30.47907411 -14.72352887 28.31013413 -16.9921875 25.3203125 C-19.18929171 20.16781148 -19.04707683 13.40330315 -17.10546875 8.1796875 C-12.8575902 1.44400756 -7.54995459 0.09577109 0 0 Z " fill="#FEFEFE" transform="translate(157.875,179.75)"/>
<path d="M0 0 C0.70769531 -0.01224609 1.41539062 -0.02449219 2.14453125 -0.03710938 C6.25932929 -0.04860322 9.42660538 0.3528062 13.125 2.1875 C13.167721 3.85361905 13.16563832 5.52132885 13.125 7.1875 C12.795 7.5175 12.465 7.8475 12.125 8.1875 C10.24954643 8.18158374 8.37416513 8.13225801 6.5 8.0625 C1.16709905 7.99886156 -2.22067431 8.6487769 -6.875 11.1875 C-6.92895478 12.81213842 -6.96777195 14.43728541 -7 16.0625 C-7.03480469 17.41988281 -7.03480469 17.41988281 -7.0703125 18.8046875 C-7.11824836 21.37556994 -7.11824836 21.37556994 -4.875 23.1875 C0.77992563 24.36560951 6.36752847 24.29176005 12.125 24.1875 C12.75 26 12.75 26 13.125 28.1875 C12.465 29.1775 11.805 30.1675 11.125 31.1875 C8.3214162 31.65924253 5.75881664 31.92894655 2.9375 32.0625 C2.19435547 32.12179688 1.45121094 32.18109375 0.68554688 32.2421875 C-4.66630811 32.54237919 -8.13733776 31.71743551 -12.875 29.1875 C-16.81293656 25.35053617 -17.16792956 21.97636871 -17.3125 16.6875 C-17.12468901 10.79828409 -16.16979754 6.96038037 -12.375 2.375 C-8.74018021 -0.50256567 -4.39079413 0.00395567 0 0 Z " fill="#FEFEFE" transform="translate(374.875,179.8125)"/>
<path d="M0 0 C1.31871094 -0.01417969 2.63742188 -0.02835938 3.99609375 -0.04296875 C7.22149903 0.16546379 8.95425569 0.35850893 11.5625 2.1875 C12.4375 4.125 12.4375 4.125 12.5625 6.1875 C11.5725 7.6725 11.5725 7.6725 10.5625 9.1875 C8.68310547 9.52807617 8.68310547 9.52807617 6.4296875 9.48046875 C5.62402344 9.47080078 4.81835938 9.46113281 3.98828125 9.45117188 C3.14652344 9.42603516 2.30476563 9.40089844 1.4375 9.375 C0.58800781 9.36146484 -0.26148437 9.34792969 -1.13671875 9.33398438 C-3.23724837 9.29858219 -5.33745293 9.24477401 -7.4375 9.1875 C-7.63377391 10.76976965 -7.81915538 12.35339271 -8 13.9375 C-8.10441406 14.81921875 -8.20882813 15.7009375 -8.31640625 16.609375 C-8.57407071 19.45660983 -8.57407071 19.45660983 -7.4375 23.1875 C-1.4975 23.1875 4.4425 23.1875 10.5625 23.1875 C10.8925 24.8375 11.2225 26.4875 11.5625 28.1875 C4.29131119 30.55028476 -2.76147537 32.33073771 -10.4375 31.1875 C-14.11222359 29.08765795 -15.91130198 27.08262277 -17.4375 23.1875 C-17.73828125 19.91015625 -17.73828125 19.91015625 -17.75 16.25 C-17.76675781 15.04472656 -17.78351562 13.83945313 -17.80078125 12.59765625 C-17.31666784 8.05323682 -15.85482528 5.42765962 -12.4375 2.4375 C-8.4173696 -0.0750815 -4.58140007 0.00439252 0 0 Z " fill="#FEFEFE" transform="translate(22.4375,179.8125)"/>
<path d="M0 0 C1.23460464 -0.00630432 2.46920929 -0.01260864 3.7412262 -0.019104 C5.08912295 -0.0155246 6.43701841 -0.01142273 7.78491211 -0.00683594 C9.16588916 -0.00818311 10.54686576 -0.01012408 11.92784119 -0.01263428 C14.82042969 -0.01558212 17.71289461 -0.01129824 20.60546875 -0.00195312 C24.31692601 0.00945202 28.02809435 0.00287328 31.73954105 -0.00909805 C34.59022712 -0.01631678 37.44084441 -0.01402888 40.29153252 -0.00884247 C41.66030346 -0.00750655 43.02908062 -0.00915167 44.39784431 -0.01380157 C46.30819711 -0.01886788 48.21857177 -0.0097798 50.12890625 0 C51.21683975 0.00159119 52.30477325 0.00318237 53.42567444 0.00482178 C55.99975586 0.25878906 55.99975586 0.25878906 57.99975586 2.25878906 C56.96568604 2.2378418 55.93161621 2.21689453 54.86621094 2.1953125 C51.01788257 2.12273618 47.16961432 2.07692589 43.32080078 2.0390625 C41.65728573 2.01898699 39.9938409 1.9917203 38.33056641 1.95703125 C35.93496346 1.9083314 33.54029594 1.88578051 31.14428711 1.86816406 C30.40451126 1.84751892 29.66473541 1.82687378 28.90254211 1.80560303 C23.85578966 1.8034259 21.72226705 2.98975424 17.99975586 6.25878906 C17.00975586 5.92878906 16.01975586 5.59878906 14.99975586 5.25878906 C14.99975586 3.93878906 14.99975586 2.61878906 14.99975586 1.25878906 C13.34975586 1.91878906 11.69975586 2.57878906 9.99975586 3.25878906 C9.99975586 3.91878906 9.99975586 4.57878906 9.99975586 5.25878906 C10.98975586 5.58878906 11.97975586 5.91878906 12.99975586 6.25878906 C12.66975586 7.24878906 12.33975586 8.23878906 11.99975586 9.25878906 C11.00975586 8.92878906 10.01975586 8.59878906 8.99975586 8.25878906 C9.32975586 9.24878906 9.65975586 10.23878906 9.99975586 11.25878906 C8.75514803 11.93546905 7.5037869 12.59973625 6.24975586 13.25878906 C5.55366211 13.63003906 4.85756836 14.00128906 4.14038086 14.38378906 C-0.48903819 16.27610634 -4.44821872 14.60753734 -9.00024414 13.25878906 C-9.66024414 13.25878906 -10.32024414 13.25878906 -11.00024414 13.25878906 C-12.24868241 15.7556656 -12.09859889 17.3931283 -12.06274414 20.18457031 C-12.05436523 21.1997876 -12.04598633 22.21500488 -12.03735352 23.26098633 C-12.02510742 24.35338623 -12.01286133 25.44578613 -12.00024414 26.57128906 C-11.9262539 38.16673742 -12.31874366 49.6854506 -13.00024414 61.25878906 C-13.33024414 61.25878906 -13.66024414 61.25878906 -14.00024414 61.25878906 C-14.12716697 53.82082364 -14.21464766 46.38313815 -14.27490234 38.94433594 C-14.30002458 36.41460738 -14.33412835 33.88495125 -14.37744141 31.35546875 C-14.43818969 27.71628943 -14.46647799 24.07807094 -14.48852539 20.43847656 C-14.51433182 19.31013397 -14.54013824 18.18179138 -14.56672668 17.01925659 C-14.56985103 8.24451535 -14.56985103 8.24451535 -11.65722656 4.62255859 C-7.51823079 0.94032419 -5.46638302 0.00798916 0 0 Z " fill="#2D4891" transform="translate(174.000244140625,52.7412109375)"/>
<path d="M0 0 C1.05368774 0.00012085 1.05368774 0.00012085 2.12866211 0.00024414 C4.27087312 -0.00194055 6.41256783 -0.02008824 8.5546875 -0.0390625 C9.91080552 -0.04199671 11.266926 -0.04398132 12.62304688 -0.04492188 C13.86304443 -0.04903076 15.10304199 -0.05313965 16.38061523 -0.05737305 C19.34570312 0.18554688 19.34570312 0.18554688 21.34570312 2.18554688 C20.97070312 4.81054688 20.97070312 4.81054688 20.34570312 7.18554688 C19.28029297 7.25902344 19.28029297 7.25902344 18.19335938 7.33398438 C17.27425781 7.40875 16.35515625 7.48351562 15.40820312 7.56054688 C14.49167969 7.63015625 13.57515625 7.69976562 12.63085938 7.77148438 C11.87675781 7.908125 11.12265625 8.04476562 10.34570312 8.18554688 C9.22746497 10.42202318 9.15174251 11.83446217 9.02929688 14.31835938 C8.98740234 15.12402344 8.94550781 15.9296875 8.90234375 16.75976562 C8.86302734 17.60152344 8.82371094 18.44328125 8.78320312 19.31054688 C8.74001953 20.16003906 8.69683594 21.00953125 8.65234375 21.88476562 C8.54616077 23.9848291 8.44541816 26.08516635 8.34570312 28.18554688 C6.69570313 28.51554687 5.04570312 28.84554687 3.34570312 29.18554688 C-0.58511073 24.57111322 -0.78802643 20.28510035 -0.71679688 14.37304688 C-0.70777344 13.39722656 -0.69875 12.42140625 -0.68945312 11.41601562 C-0.67785156 10.67996094 -0.66625 9.94390625 -0.65429688 9.18554688 C-1.36457031 9.05277344 -2.07484375 8.92 -2.80664062 8.78320312 C-3.72574219 8.60660156 -4.64484375 8.43 -5.59179688 8.24804688 C-6.50832031 8.07402344 -7.42484375 7.9 -8.36914062 7.72070312 C-10.65429688 7.18554688 -10.65429688 7.18554688 -11.65429688 6.18554688 C-11.77929688 3.68554688 -11.77929688 3.68554688 -11.65429688 1.18554688 C-9.2241365 -1.2446135 -3.39654557 0.01232133 0 0 Z " fill="#FEFEFE" transform="translate(409.654296875,180.814453125)"/>
<path d="M0 0 C0.08636719 1.29550781 0.17273438 2.59101562 0.26171875 3.92578125 C1.21132693 16.43527057 3.40343416 27.98856827 7 40 C3.37 40 -0.26 40 -4 40 C-7.630261 30.9243475 -9.38264587 22.47923532 -9.5 12.6875 C-9.54125 11.80771484 -9.5825 10.92792969 -9.625 10.02148438 C-9.655182 7.53712857 -9.60238191 5.41123895 -9 3 C-4.28123875 -1.42707958 -4.28123875 -1.42707958 0 0 Z " fill="#2657A1" transform="translate(122,107)"/>
<path d="M0 0 C0 0.66 0 1.32 0 2 C-0.99 2.66 -1.98 3.32 -3 4 C-3.33 4.99 -3.66 5.98 -4 7 C-2.68 6.34 -1.36 5.68 0 5 C0.99 5.66 1.98 6.32 3 7 C2.27296875 7.27972656 1.5459375 7.55945312 0.796875 7.84765625 C-11.44529627 12.5092605 -11.44529627 12.5092605 -22 20 C-23.66617115 20.04063832 -25.33388095 20.042721 -27 20 C-26.1875 18.0625 -26.1875 18.0625 -25 16 C-24.01 15.67 -23.02 15.34 -22 15 C-20.29144978 11.99992729 -20.29144978 11.99992729 -19 9 C-19.99 8.67 -20.98 8.34 -22 8 C-19.69 7.34 -17.38 6.68 -15 6 C-14.67 6.99 -14.34 7.98 -14 9 C-13.67 7.35 -13.34 5.7 -13 4 C-11.68 3.67 -10.36 3.34 -9 3 C-9 2.34 -9 1.68 -9 1 C-3.375 -1.125 -3.375 -1.125 0 0 Z " fill="#137DC3" transform="translate(183,15)"/>
<path d="M0 0 C7.5276878 -0.0462929 15.05536088 -0.08185365 22.58315849 -0.10362434 C26.07843927 -0.11407198 29.57362283 -0.12824883 33.06884766 -0.15087891 C37.08497056 -0.17671953 41.10099097 -0.18646466 45.1171875 -0.1953125 C47.00472244 -0.21079636 47.00472244 -0.21079636 48.9303894 -0.22659302 C50.09144196 -0.22674408 51.25249451 -0.22689514 52.44873047 -0.22705078 C53.47465302 -0.231492 54.50057556 -0.23593323 55.55758667 -0.24050903 C58 0 58 0 60 2 C58.96593018 1.97905273 57.93186035 1.95810547 56.86645508 1.93652344 C53.01812672 1.86394712 49.16985846 1.81813683 45.32104492 1.78027344 C43.65752987 1.76019793 41.99408504 1.73293124 40.33081055 1.69824219 C37.9352076 1.64954234 35.54054008 1.62699144 33.14453125 1.609375 C32.4047554 1.58872986 31.66497955 1.56808472 30.90278625 1.54681396 C25.85603381 1.54463684 23.72251119 2.73096518 20 6 C19.01 5.67 18.02 5.34 17 5 C17 3.68 17 2.36 17 1 C15.35 1.66 13.7 2.32 12 3 C12 3.66 12 4.32 12 5 C12.99 5.33 13.98 5.66 15 6 C14.67 6.99 14.34 7.98 14 9 C13.01 8.67 12.02 8.34 11 8 C11.33 8.99 11.66 9.98 12 11 C9.03 12.32 6.06 13.64 3 15 C3.185625 14.236875 3.37125 13.47375 3.5625 12.6875 C4.22819173 9.91032625 4.22819173 9.91032625 3 7 C4.9375 3.8125 4.9375 3.8125 7 1 C4.69 1 2.38 1 0 1 C0 0.67 0 0.34 0 0 Z " fill="#284C98" transform="translate(172,53)"/>
<path d="M0 0 C0.33 0 0.66 0 1 0 C1.1016491 7.2773034 1.17157032 14.55442282 1.21972656 21.83227539 C1.23980771 24.30662885 1.26707823 26.78093505 1.30175781 29.25512695 C1.35042778 32.81733888 1.37300454 36.37892181 1.390625 39.94140625 C1.41127014 41.04271378 1.43191528 42.1440213 1.45318604 43.27870178 C1.45506704 49.75711137 0.90631823 53.75295391 -3 59 C-7.72883474 62.54662606 -11.88833084 63.12635325 -17.68652344 63.11352539 C-18.82740417 63.11344986 -19.96828491 63.11337433 -21.14373779 63.11329651 C-22.36989807 63.10813522 -23.59605835 63.10297394 -24.859375 63.09765625 C-26.11888977 63.0962413 -27.37840454 63.09482635 -28.67608643 63.09336853 C-32.01665119 63.08872073 -35.35714721 63.07974281 -38.69769287 63.06866455 C-42.1096538 63.05841598 -45.52162185 63.05386354 -48.93359375 63.04882812 C-55.6224148 63.03779963 -62.31120343 63.02106189 -69 63 C-69 62.67 -69 62.34 -69 62 C-68.36328873 61.98969254 -67.72657745 61.97938507 -67.0705719 61.96876526 C-60.46873202 61.86093669 -53.86703522 61.74632039 -47.26538086 61.62768555 C-44.79861431 61.58426057 -42.33181622 61.54259128 -39.86499023 61.50268555 C-36.32786534 61.44516555 -32.79090034 61.38141925 -29.25390625 61.31640625 C-28.14350479 61.29969376 -27.03310333 61.28298126 -25.88905334 61.26576233 C-24.86807053 61.24581711 -23.84708771 61.22587189 -22.79516602 61.20532227 C-21.43948265 61.18200584 -21.43948265 61.18200584 -20.05641174 61.15821838 C-18.00805899 61.22498543 -18.00805899 61.22498543 -17 60 C-15.15108054 59.76636119 -13.29511969 59.58696365 -11.4375 59.4375 C-10.42558594 59.35371094 -9.41367188 59.26992187 -8.37109375 59.18359375 C-7.58863281 59.12300781 -6.80617187 59.06242187 -6 59 C-5.79890625 58.11248047 -5.79890625 58.11248047 -5.59375 57.20703125 C-5 55 -5 55 -3.5 51.6875 C-0.82038219 45.10010622 -0.81978211 38.36137731 -0.68359375 31.34765625 C-0.6524221 29.99745644 -0.6524221 29.99745644 -0.62062073 28.61997986 C-0.55566163 25.76755813 -0.49649172 22.91505075 -0.4375 20.0625 C-0.39426367 18.11913206 -0.35064781 16.17577252 -0.30664062 14.23242188 C-0.20003585 9.48836721 -0.09862005 4.74422709 0 0 Z " fill="#4794C4" transform="translate(239,63)"/>
<path d="M0 0 C0.66 0 1.32 0 2 0 C7.74031891 13.6332574 7.74031891 13.6332574 7 20 C8.65 20.33 10.3 20.66 12 21 C11.67 23.31 11.34 25.62 11 28 C10.01 28 9.02 28 8 28 C8.00523682 28.57967529 8.01047363 29.15935059 8.01586914 29.7565918 C8.03674334 32.4002167 8.04969327 35.04382421 8.0625 37.6875 C8.07087891 38.59951172 8.07925781 39.51152344 8.08789062 40.45117188 C8.09111328 41.33740234 8.09433594 42.22363281 8.09765625 43.13671875 C8.10289307 43.94842529 8.10812988 44.76013184 8.11352539 45.59643555 C8 48 8 48 7.43139648 50.61645508 C6.77847036 53.13562602 6.77847036 53.13562602 8 56 C7.0390625 57.6484375 7.0390625 57.6484375 5.625 59.375 C3.43943136 62.22653138 2.33261573 64.341227 2 68 C1.34 67.67 0.68 67.34 0 67 C0.18175781 66.36835938 0.36351562 65.73671875 0.55078125 65.0859375 C1.39956057 62.06515366 2.2062106 59.03570812 3 56 C3.28617187 54.91589844 3.57234375 53.83179688 3.8671875 52.71484375 C8.10961034 35.11888995 6.44790242 16.88736348 0 0 Z " fill="#47B0CA" transform="translate(295,78)"/>
<path d="M0 0 C0.33 0 0.66 0 1 0 C1.33 17.49 1.66 34.98 2 53 C6.62 52.67 11.24 52.34 16 52 C15.34 53.32 14.68 54.64 14 56 C12.68 56 11.36 56 10 56 C10 57.32 10 58.64 10 60 C10.99 60.33 11.98 60.66 13 61 C11.375 61.75 11.375 61.75 9 62 C4.06311991 59.48118363 1.91443597 57.15675582 0 52 C-0.40246978 48.00898888 -0.34905184 44.04673255 -0.29296875 40.0390625 C-0.28872391 38.89335785 -0.28447906 37.7476532 -0.28010559 36.56723022 C-0.2633564 32.91957785 -0.22570991 29.27248449 -0.1875 25.625 C-0.17244836 23.14714341 -0.15876079 20.66927814 -0.14648438 18.19140625 C-0.11346512 12.12741448 -0.06330259 6.06374719 0 0 Z " fill="#43669E" transform="translate(159,63)"/>
<path d="M0 0 C1.9375 1.5625 1.9375 1.5625 3 3 C2.67 3.66 2.34 4.32 2 5 C0.68 5 -0.64 5 -2 5 C-4.20067421 5.93283296 -4.20067421 5.93283296 -6 7 C-6.33 5.68 -6.66 4.36 -7 3 C-8.79187629 3.81203758 -10.58349451 4.62464468 -12.375 5.4375 C-13.87160156 6.11619141 -13.87160156 6.11619141 -15.3984375 6.80859375 C-18.96765945 8.22623763 -18.96765945 8.22623763 -21.11279297 11.1628418 C-22.12264894 14.39221336 -22.22735762 17.0137709 -22.1953125 20.39453125 C-22.18886719 21.59658203 -22.18242187 22.79863281 -22.17578125 24.03710938 C-22.15902344 25.28298828 -22.14226562 26.52886719 -22.125 27.8125 C-22.11597656 29.07771484 -22.10695312 30.34292969 -22.09765625 31.64648438 C-22.07412394 34.76451564 -22.04124545 37.88216097 -22 41 C-22.66 40.67 -23.32 40.34 -24 40 C-24.12406007 35.96174934 -24.21455045 31.92424362 -24.2746582 27.88452148 C-24.29972617 26.51192898 -24.33379082 25.13946898 -24.37719727 23.76733398 C-24.43817531 21.78949304 -24.46361009 19.81065816 -24.48828125 17.83203125 C-24.51446533 16.64327393 -24.54064941 15.4545166 -24.56762695 14.22973633 C-23.68698547 9.218981 -20.56009823 7.17136943 -16.6484375 4.234375 C-15.89820313 3.74453125 -15.14796875 3.2546875 -14.375 2.75 C-13.61960937 2.24984375 -12.86421875 1.7496875 -12.0859375 1.234375 C-7.76624019 -1.32185038 -4.81989568 -1.03283479 0 0 Z " fill="#2590C8" transform="translate(272,64)"/>
<path d="M0 0 C0.763125 0.20625 1.52625 0.4125 2.3125 0.625 C-0.15925141 7.29872881 -0.15925141 7.29872881 -2.8125 8.9375 C-3.740625 9.2778125 -3.740625 9.2778125 -4.6875 9.625 C-5.0175 10.285 -5.3475 10.945 -5.6875 11.625 C-5.0275 12.285 -4.3675 12.945 -3.6875 13.625 C-5.3375 14.945 -6.9875 16.265 -8.6875 17.625 C-8.6875 15.645 -8.6875 13.665 -8.6875 11.625 C-10.0075 11.295 -11.3275 10.965 -12.6875 10.625 C-13.0175 11.285 -13.3475 11.945 -13.6875 12.625 C-13.6875 11.965 -13.6875 11.305 -13.6875 10.625 C-14.3475 10.295 -15.0075 9.965 -15.6875 9.625 C-14.0845551 8.33181744 -12.48009858 7.04050844 -10.875 5.75 C-9.98167969 5.03070312 -9.08835938 4.31140625 -8.16796875 3.5703125 C-3.06935855 -0.42828259 -3.06935855 -0.42828259 0 0 Z " fill="#207CBD" transform="translate(162.6875,22.375)"/>
<path d="M0 0 C1.33333333 2.66666667 2.66666667 5.33333333 4 8 C4.33 6.68 4.66 5.36 5 4 C6.5 5.3125 6.5 5.3125 8 7 C8 7.99 8 8.98 8 10 C7.01 10.495 7.01 10.495 6 11 C5.9175 11.598125 5.835 12.19625 5.75 12.8125 C5 15 5 15 2.0078125 16.62109375 C-1.38990404 18.78486778 -1.38990404 18.78486778 -1.8046875 22.890625 C-1.85750038 24.34297908 -1.88013535 25.79669507 -1.875 27.25 C-1.895625 27.99507812 -1.91625 28.74015625 -1.9375 29.5078125 C-1.98442939 31.33805864 -1.99574223 33.16915725 -2 35 C-2.33 35 -2.66 35 -3 35 C-3.38103216 22.93398176 -2.51171627 11.81104675 0 0 Z " fill="#40ABCB" transform="translate(125,86)"/>
<path d="M0 0 C0.66 1.98 1.32 3.96 2 6 C1.01 6.66 0.02 7.32 -1 8 C1.97 8.495 1.97 8.495 5 9 C5 9.33 5 9.66 5 10 C2.75106046 10.10823773 0.50062425 10.18569645 -1.75 10.25 C-3.62945312 10.31960937 -3.62945312 10.31960937 -5.546875 10.390625 C-9 10 -9 10 -11.453125 7.984375 C-11.96359375 7.32953125 -12.4740625 6.6746875 -13 6 C-12.67 5.01 -12.34 4.02 -12 3 C-11.278125 2.87625 -10.55625 2.7525 -9.8125 2.625 C-6.46569203 1.8812649 -3.411738 0 0 0 Z " fill="#2164AA" transform="translate(181,115)"/>
<path d="M0 0 C7.5276878 -0.0462929 15.05536088 -0.08185365 22.58315849 -0.10362434 C26.07843927 -0.11407198 29.57362283 -0.12824883 33.06884766 -0.15087891 C37.08497056 -0.17671953 41.10099097 -0.18646466 45.1171875 -0.1953125 C47.00472244 -0.21079636 47.00472244 -0.21079636 48.9303894 -0.22659302 C50.09144196 -0.22674408 51.25249451 -0.22689514 52.44873047 -0.22705078 C53.47465302 -0.231492 54.50057556 -0.23593323 55.55758667 -0.24050903 C58 0 58 0 60 2 C58.96593018 1.97905273 57.93186035 1.95810547 56.86645508 1.93652344 C53.01812672 1.86394712 49.16985846 1.81813683 45.32104492 1.78027344 C43.65752987 1.76019793 41.99408504 1.73293124 40.33081055 1.69824219 C37.9352076 1.64954234 35.54054008 1.62699144 33.14453125 1.609375 C32.4047554 1.58872986 31.66497955 1.56808472 30.90278625 1.54681396 C25.85603381 1.54463684 23.72251119 2.73096518 20 6 C19.01 5.67 18.02 5.34 17 5 C17 3.68 17 2.36 17 1 C11.39 1 5.78 1 0 1 C0 0.67 0 0.34 0 0 Z " fill="#305A93" transform="translate(172,53)"/>
<path d="M0 0 C0.33 0 0.66 0 1 0 C1.10132712 7.90190696 1.17143514 15.80364672 1.21972656 23.70605469 C1.237599 26.39504466 1.26544475 29.08365826 1.30175781 31.77246094 C1.35021615 35.63487561 1.37295626 39.49671208 1.390625 43.359375 C1.41127014 44.5636615 1.43191528 45.767948 1.45318604 47.00872803 C1.45348816 48.12958801 1.45379028 49.250448 1.45410156 50.40527344 C1.46298401 51.39122498 1.47186646 52.37717651 1.48101807 53.39300537 C0.86564314 56.72817972 -0.36967734 57.92957135 -3 60 C-3.66 60 -4.32 60 -5 60 C-5 60.66 -5 61.32 -5 62 C-6.32 61.67 -7.64 61.34 -9 61 C-8.21625 60.773125 -7.4325 60.54625 -6.625 60.3125 C-3.80208333 59.22916667 -3.80208333 59.22916667 -2.75 56.5 C-2.5025 55.675 -2.255 54.85 -2 54 C-1.67 53.34 -1.34 52.68 -1 52 C-0.88112044 50.33600717 -0.82288056 48.66750725 -0.79467773 46.99951172 C-0.77473251 45.95858368 -0.75478729 44.91765564 -0.73423767 43.84518433 C-0.70916893 42.1545134 -0.70916893 42.1545134 -0.68359375 40.4296875 C-0.66281265 39.27832306 -0.64203156 38.12695862 -0.62062073 36.94070435 C-0.55508335 33.2521986 -0.49622072 29.56361997 -0.4375 25.875 C-0.39431877 23.37889862 -0.35070462 20.8828047 -0.30664062 18.38671875 C-0.19939769 12.25789019 -0.09763911 6.12898867 0 0 Z " fill="#E6FCFE" transform="translate(240,63)"/>
<path d="M0 0 C1.04670113 0.48797562 1.04670113 0.48797562 2.11454773 0.98580933 C5.32782812 2.11522638 7.76746715 2.2411285 11.16723633 2.22705078 C12.38812454 2.22689972 13.60901276 2.22674866 14.86689758 2.22659302 C16.17539169 2.21627045 17.4838858 2.20594788 18.83203125 2.1953125 C20.19251802 2.19157922 21.5530075 2.18873373 22.91349792 2.18673706 C26.48261017 2.17912538 30.05155791 2.15949834 33.62060547 2.1373291 C37.26722997 2.11681735 40.91388123 2.10772398 44.56054688 2.09765625 C51.70709827 2.07624991 58.85353836 2.04214397 66 2 C60.91365907 7.08634093 48.78234275 5.1756814 41.97265625 5.203125 C40.30655556 5.21167511 40.30655556 5.21167511 38.60679626 5.22039795 C36.2781569 5.22978271 33.94950465 5.23635571 31.62084961 5.24023438 C28.04843708 5.25003859 24.47657719 5.28116206 20.90429688 5.3125 C18.63542006 5.3190218 16.36653917 5.32427549 14.09765625 5.328125 C13.02894791 5.3404718 11.96023956 5.3528186 10.85914612 5.36553955 C9.37631386 5.3610379 9.37631386 5.3610379 7.86352539 5.35644531 C6.99433975 5.36009094 6.12515411 5.36373657 5.22962952 5.36749268 C2.52574062 4.92183148 1.62233332 4.17398418 0 2 C0 1.34 0 0.68 0 0 Z " fill="#E7FCFE" transform="translate(165,123)"/>
<path d="M0 0 C0.33 0 0.66 0 1 0 C0.93999894 1.6260287 0.8512115 3.25101549 0.75 4.875 C0.68039062 6.23238281 0.68039062 6.23238281 0.609375 7.6171875 C0 10 0 10 -1.84375 11.3125 C-4.62456019 12.19913513 -7.1010003 12.13177271 -10 12 C-9.67 11.01 -9.34 10.02 -9 9 C-9.99 8.34 -10.98 7.68 -12 7 C-11.67 6.34 -11.34 5.68 -11 5 C-8.71484375 4.3671875 -8.71484375 4.3671875 -5.9375 3.875 C-5.01839844 3.70742187 -4.09929687 3.53984375 -3.15234375 3.3671875 C-2.44207031 3.24601562 -1.73179687 3.12484375 -1 3 C-0.67 2.01 -0.34 1.02 0 0 Z " fill="#0DA1E1" transform="translate(274,103)"/>
<path d="M0 0 C1.22543391 3.67630173 0.6169412 4.55203486 -0.8125 8.0625 C-5.14570009 19.55295127 -5.52556582 30.83950286 -6 43 C-6.33 43 -6.66 43 -7 43 C-7.33 34.09 -7.66 25.18 -8 16 C-8.66 16 -9.32 16 -10 16 C-9.34 14.68 -8.68 13.36 -8 12 C-7.67 12.66 -7.34 13.32 -7 14 C-6.34 14 -5.68 14 -5 14 C-4.89042969 13.40832031 -4.78085938 12.81664063 -4.66796875 12.20703125 C-3.74085597 7.58654237 -2.77648665 3.9123221 0 0 Z " fill="#66BED2" transform="translate(140,75)"/>
<path d="M0 0 C1.74949772 2.62424658 2.65389981 4.55727216 3.625 7.5 C4.01558594 8.66015625 4.01558594 8.66015625 4.4140625 9.84375 C5 12 5 12 5 15 C-2.26 15 -9.52 15 -17 15 C-17 14.67 -17 14.34 -17 14 C-12.05 13.67 -7.1 13.34 -2 13 C-2 11.68 -2 10.36 -2 9 C-1.34 8.67 -0.68 8.34 0 8 C0 5.36 0 2.72 0 0 Z " fill="#6FBACD" transform="translate(136,133)"/>
<path d="M0 0 C3.96521085 -0.0499542 7.93029631 -0.08597787 11.89575195 -0.10986328 C13.89736377 -0.12470245 15.89888812 -0.15013361 17.90039062 -0.17578125 C24.88452271 -0.21096579 31.32219081 -0.17551065 38 2 C38.495 3.485 38.495 3.485 39 5 C37.87207031 4.7834375 36.74414062 4.566875 35.58203125 4.34375 C23.28757948 2.12243359 11.47423499 1.6648713 -1 2 C-0.67 1.34 -0.34 0.68 0 0 Z " fill="#60B7CC" transform="translate(203,26)"/>
<path d="M0 0 C0.66 0.33 1.32 0.66 2 1 C2.5625 3.1875 2.5625 3.1875 3 6 C3.185625 7.093125 3.37125 8.18625 3.5625 9.3125 C3.706875 10.199375 3.85125 11.08625 4 12 C3.236875 12.12375 2.47375 12.2475 1.6875 12.375 C-1.20267136 12.88102792 -1.20267136 12.88102792 -4 15 C-4.58481121 17.88595946 -4.58481121 17.88595946 -4.6875 21.125 C-4.75324219 22.22070312 -4.81898437 23.31640625 -4.88671875 24.4453125 C-4.92410156 25.28835937 -4.96148437 26.13140625 -5 27 C-5.33 27 -5.66 27 -6 27 C-6 19.41 -6 11.82 -6 4 C-5.67 4 -5.34 4 -5 4 C-4.67 5.98 -4.34 7.96 -4 10 C-2.68 9.67 -1.36 9.34 0 9 C0 6.03 0 3.06 0 0 Z " fill="#4F77B3" transform="translate(118,95)"/>
<path d="M0 0 C2 1 2 1 2.78125 2.93359375 C4.49598087 8.90719423 5.95482851 14.87149446 7 21 C7.19207031 22.08023438 7.38414062 23.16046875 7.58203125 24.2734375 C8.04855998 28.43295537 7.89340914 32.28021624 7.5625 36.4375 C7.48418945 37.53481445 7.48418945 37.53481445 7.40429688 38.65429688 C7.27615124 40.43668622 7.1390184 42.2184257 7 44 C6.67 44 6.34 44 6 44 C5.94392578 42.07800781 5.94392578 42.07800781 5.88671875 40.1171875 C5.4795943 28.67111095 4.72409481 17.77481863 0.90234375 6.8671875 C0 4 0 4 0 0 Z " fill="#1395CC" transform="translate(307,75)"/>
<path d="M0 0 C0.99 0.495 0.99 0.495 2 1 C2 2.32 2 3.64 2 5 C4.89186786 6.33304698 4.89186786 6.33304698 7.1875 5.0625 C7.785625 4.711875 8.38375 4.36125 9 4 C8.42415568 6.38564077 7.77772405 8.66682784 7 11 C9.46800047 9.84826645 11.04783565 8.95216435 13 7 C13.33 8.65 13.66 10.3 14 12 C10.37 12 6.74 12 3 12 C0 4.5 0 4.5 0 0 Z " fill="#3E63A2" transform="translate(115,135)"/>
<path d="M0 0 C5.39844578 0.34828682 5.39844578 0.34828682 8 1 C9.5625 2.9375 9.5625 2.9375 10 5 C9.67 5.66 9.34 6.32 9 7 C8.34 7 7.68 7 7 7 C7 7.66 7 8.32 7 9 C5.35 8.67 3.7 8.34 2 8 C1.34 5.36 0.68 2.72 0 0 Z " fill="#42B1C9" transform="translate(280,50)"/>
<path d="M0 0 C0.33 0 0.66 0 1 0 C1.8532725 4.07674638 1.87367692 6.95924427 1 11 C1.33 11.99 1.66 12.98 2 14 C1.0390625 15.6484375 1.0390625 15.6484375 -0.375 17.375 C-2.56056864 20.22653138 -3.66738427 22.341227 -4 26 C-4.66 25.67 -5.32 25.34 -6 25 C-5.72736328 24.05253906 -5.72736328 24.05253906 -5.44921875 23.0859375 C-3.30482106 15.45408112 -1.59795595 7.76311933 0 0 Z " fill="#61BAD0" transform="translate(301,120)"/>
<path d="M0 0 C1.32 1.32 2.64 2.64 4 4 C3.67 4.66 3.34 5.32 3 6 C2.34 6 1.68 6 1 6 C1.33 7.65 1.66 9.3 2 11 C1.13375 10.175 0.2675 9.35 -0.625 8.5 C-3.17890641 6.34134101 -3.86639751 6.0123706 -7.375 5.6875 C-8.24125 5.790625 -9.1075 5.89375 -10 6 C-10.33 5.01 -10.66 4.02 -11 3 C-5.71502591 1.23834197 -5.71502591 1.23834197 -3 1 C-0.5 2.875 -0.5 2.875 1 5 C0.67 3.35 0.34 1.7 0 0 Z " fill="#E6F5F9" transform="translate(274,58)"/>
<path d="M0 0 C0 0.66 0 1.32 0 2 C-2.90600261 3.25664978 -4.79604584 4 -8 4 C-8 4.66 -8 5.32 -8 6 C-8.639375 6.268125 -9.27875 6.53625 -9.9375 6.8125 C-12.33131686 7.88667752 -12.33131686 7.88667752 -13 11 C-12.34 11.33 -11.68 11.66 -11 12 C-11.99 12.33 -12.98 12.66 -14 13 C-14.66 12.01 -15.32 11.02 -16 10 C-18.05925139 9.27617533 -18.05925139 9.27617533 -20 9 C-17.56401192 7.68462636 -15.1263175 6.37260857 -12.6875 5.0625 C-11.99720703 4.68931641 -11.30691406 4.31613281 -10.59570312 3.93164062 C-9.92861328 3.57392578 -9.26152344 3.21621094 -8.57421875 2.84765625 C-7.65515747 2.3527771 -7.65515747 2.3527771 -6.7175293 1.84790039 C-4.4672463 0.73699309 -2.52660513 0 0 0 Z " fill="#589BC7" transform="translate(182,12)"/>
<path d="M0 0 C0.763125 0.20625 1.52625 0.4125 2.3125 0.625 C1.6525 2.275 0.9925 3.925 0.3125 5.625 C-2.6575 5.13 -2.6575 5.13 -5.6875 4.625 C-6.0175 5.615 -6.3475 6.605 -6.6875 7.625 C-8.0075 7.295 -9.3275 6.965 -10.6875 6.625 C-3.73006466 -0.52047414 -3.73006466 -0.52047414 0 0 Z " fill="#3488C3" transform="translate(162.6875,22.375)"/>
<path d="M0 0 C0.66 0 1.32 0 2 0 C6.08554415 8.91524099 7.72194844 16.19754456 7 26 C6.67 26 6.34 26 6 26 C5.81824219 24.87722656 5.63648438 23.75445312 5.44921875 22.59765625 C4.15568907 14.82346478 2.82300532 7.39358536 0 0 Z " fill="#5CB7CB" transform="translate(295,78)"/>
<path d="M0 0 C0.66 0 1.32 0 2 0 C1.83701416 0.53012695 1.67402832 1.06025391 1.50610352 1.60644531 C0.88292397 4.55369677 0.88813156 7.28389145 0.90234375 10.296875 C0.90556641 11.50214844 0.90878906 12.70742187 0.91210938 13.94921875 C0.92048828 15.20347656 0.92886719 16.45773438 0.9375 17.75 C0.94201172 19.01972656 0.94652344 20.28945312 0.95117188 21.59765625 C0.96295444 24.73181836 0.97940584 27.86588541 1 31 C0.34 30.67 -0.32 30.34 -1 30 C-1.02465746 25.8882744 -1.04283959 21.77657722 -1.05493164 17.66479492 C-1.0599708 16.26504772 -1.06680216 14.8653058 -1.07543945 13.46557617 C-1.0875232 11.45754223 -1.09269807 9.44947043 -1.09765625 7.44140625 C-1.10289307 6.23170166 -1.10812988 5.02199707 -1.11352539 3.77563477 C-1 1 -1 1 0 0 Z " fill="#2584BC" transform="translate(249,74)"/>
<path d="M0 0 C3.81300782 3.2870757 5.22972246 6.39727838 7 11 C4.625 11.625 4.625 11.625 2 12 C1.34 11.34 0.68 10.68 0 10 C0.30503431 7.99548879 0.64080679 5.99551782 1 4 C0.6422386 1.72349255 0.6422386 1.72349255 0 0 Z " fill="#38ABE1" transform="translate(304,51)"/>
<path d="M0 0 C0.57878906 0.37253906 1.15757812 0.74507813 1.75390625 1.12890625 C1.42390625 2.11890625 1.09390625 3.10890625 0.75390625 4.12890625 C0.75390625 3.46890625 0.75390625 2.80890625 0.75390625 2.12890625 C0.01785156 2.46664062 -0.71820313 2.804375 -1.4765625 3.15234375 C-2.45238281 3.59835938 -3.42820312 4.044375 -4.43359375 4.50390625 C-5.39652344 4.94476563 -6.35945313 5.385625 -7.3515625 5.83984375 C-9.96141167 7.00212476 -12.58585334 8.08815406 -15.24609375 9.12890625 C-5.09356816 -1.97541861 -5.09356816 -1.97541861 0 0 Z " fill="#2F8DC3" transform="translate(264.24609375,64.87109375)"/>
<path d="M0 0 C0.99 0.33 1.98 0.66 3 1 C2.8125 3.375 2.8125 3.375 2 6 C-0.5 7.1875 -0.5 7.1875 -3 8 C-3.33 8.66 -3.66 9.32 -4 10 C-3.51171875 3.9453125 -3.51171875 3.9453125 -3 2 C-2.01 1.34 -1.02 0.68 0 0 Z " fill="#205CA7" transform="translate(119,82)"/>
<path d="M0 0 C4.72318339 3.39100346 4.72318339 3.39100346 5.9375 6.0625 C6 8 6 8 4 11 C4 9.02 4 7.04 4 5 C2.02 5.66 0.04 6.32 -2 7 C-2.33 5.35 -2.66 3.7 -3 2 C-2.01 1.34 -1.02 0.68 0 0 Z " fill="#2A76B4" transform="translate(233,55)"/>
<path d="M0 0 C1.65 0 3.3 0 5 0 C6.0625 2.375 6.0625 2.375 7 5 C6.67 5.66 6.34 6.32 6 7 C4.125 6.6875 4.125 6.6875 2 6 C0 3 0 3 0 0 Z " fill="#0F96D1" transform="translate(290,47)"/>
<path d="M0 0 C0.66 0.99 1.32 1.98 2 3 C1.34 3 0.68 3 0 3 C0 6.3 0 9.6 0 13 C-1.98 13.99 -1.98 13.99 -4 15 C-3.43179252 9.54520815 -2.05362055 5.08940744 0 0 Z " fill="#5C87BC" transform="translate(120,69)"/>
<path d="M0 0 C3.0916909 2.52956528 3.90931332 5.22454612 5 9 C4.01 9.495 4.01 9.495 3 10 C3 9.34 3 8.68 3 8 C0.03 7.505 0.03 7.505 -3 7 C-2.505 6.21625 -2.01 5.4325 -1.5 4.625 C0.16537965 2.21447673 0.16537965 2.21447673 0 0 Z " fill="#21A2DC" transform="translate(301,47)"/>
<path d="M0 0 C1.65 0.33 3.3 0.66 5 1 C5 1.66 5 2.32 5 3 C5.99 3.33 6.98 3.66 8 4 C7.01 4 6.02 4 5 4 C4.67 4.66 4.34 5.32 4 6 C3.01 6 2.02 6 1 6 C0.34 5.34 -0.32 4.68 -1 4 C-0.625 1.875 -0.625 1.875 0 0 Z " fill="#0699DF" transform="translate(299,54)"/>
<path d="M0 0 C1.134375 0.020625 2.26875 0.04125 3.4375 0.0625 C2.7775 2.0425 2.1175 4.0225 1.4375 6.0625 C-0.2125 5.7325 -1.8625 5.4025 -3.5625 5.0625 C-4.125 3.125 -4.125 3.125 -4.5625 1.0625 C-3.5625 0.0625 -3.5625 0.0625 0 0 Z " fill="#275CA6" transform="translate(165.5625,115.9375)"/>
<path d="M0 0 C1.32 0 2.64 0 4 0 C5.32 2.97 6.64 5.94 8 9 C5.08482708 7.92598892 3.22189824 7.22189824 1 5 C0.375 2.375 0.375 2.375 0 0 Z " fill="#1C92CD" transform="translate(249,101)"/>
<path d="M0 0 C2.64 0 5.28 0 8 0 C6.35 1.65 4.7 3.3 3 5 C2.01 4.67 1.02 4.34 0 4 C0 2.68 0 1.36 0 0 Z " fill="#23509B" transform="translate(189,54)"/>
<path d="M0 0 C1.98 0.495 1.98 0.495 4 1 C4 2.65 4 4.3 4 6 C4.99 6.33 5.98 6.66 7 7 C3.31245243 6.50168276 1.39509338 5.89932357 -1 3 C-0.67 2.01 -0.34 1.02 0 0 Z " fill="#215DA0" transform="translate(169,118)"/>
<path d="M0 0 C3.01305957 0.38878188 4.39685311 1.26456874 7 3 C5.3125 4.1875 5.3125 4.1875 3 5 C0.25 3.625 0.25 3.625 -2 2 C-1.34 1.34 -0.68 0.68 0 0 Z " fill="#1C9BD3" transform="translate(259,109)"/>
<path d="M0 0 C0 3.20395416 -0.74335022 5.09399739 -2 8 C-2.99 8 -3.98 8 -5 8 C-4.64950425 4.75791433 -4.43778819 3.38472296 -1.9375 1.1875 C-1.298125 0.795625 -0.65875 0.40375 0 0 Z " fill="#3DB0D1" transform="translate(153,41)"/>
<path d="M0 0 C0.33 0.66 0.66 1.32 1 2 C1.66 2 2.32 2 3 2 C2.67 3.98 2.34 5.96 2 8 C2.66 8.33 3.32 8.66 4 9 C3.01 9.99 2.02 10.98 1 12 C0.01751476 7.9472484 -0.08159574 4.16138263 0 0 Z " fill="#44A9CE" transform="translate(123,121)"/>
<path d="M0 0 C1.98 1.65 3.96 3.3 6 5 C2.37673261 6.2077558 1.35853631 5.54311128 -2 4 C-2 3.34 -2 2.68 -2 2 C-1.34 2 -0.68 2 0 2 C0 1.34 0 0.68 0 0 Z " fill="#DCF3F3" transform="translate(276,51)"/>
<path d="M0 0 C0.99 1.32 1.98 2.64 3 4 C2.195625 4.28875 1.39125 4.5775 0.5625 4.875 C-2.1326468 5.73262568 -2.1326468 5.73262568 -3 8 C-3.66 8 -4.32 8 -5 8 C-3.8141763 4.62496331 -2.72426311 2.35277269 0 0 Z " fill="#5189BE" transform="translate(135,45)"/>
<path d="M0 0 C0 1.32 0 2.64 0 4 C0.66 4.33 1.32 4.66 2 5 C1.01 5.33 0.02 5.66 -1 6 C-1.66 5.01 -2.32 4.02 -3 3 C-5.05925139 2.27617533 -5.05925139 2.27617533 -7 2 C-4 0 -4 0 0 0 Z " fill="#378BC7" transform="translate(169,19)"/>
<path d="M0 0 C0 2.62113708 -0.31292445 4.50935112 -1 7 C-2.98 7.33 -4.96 7.66 -7 8 C-6.02133662 6.85373678 -5.04205413 5.70800212 -4.0625 4.5625 C-3.51722656 3.92441406 -2.97195312 3.28632812 -2.41015625 2.62890625 C-1.63204305 1.73008851 -0.84063472 0.84063472 0 0 Z " fill="#508BB8" transform="translate(146,33)"/>
<path d="M0 0 C-2.6860286 1.79068573 -4.6626589 2.66055791 -7.6875 3.625 C-8.49574219 3.88539062 -9.30398437 4.14578125 -10.13671875 4.4140625 C-10.75160156 4.60742188 -11.36648437 4.80078125 -12 5 C-11.67 4.01 -11.34 3.02 -11 2 C-7.24092359 0.37676246 -4.07913787 -0.23994929 0 0 Z " fill="#5DB5CE" transform="translate(194,30)"/>
<path d="M0 0 C0.66 0.33 1.32 0.66 2 1 C-2.18586481 4.18923033 -4.70558305 5.50423019 -10 5 C-6.76527494 2.84351662 -3.62848922 1.38542316 0 0 Z " fill="#D9F7FB" transform="translate(191,31)"/>
<path d="M0 0 C0.99 0.33 1.98 0.66 3 1 C3 1.66 3 2.32 3 3 C3.66 3 4.32 3 5 3 C5.33 3.99 5.66 4.98 6 6 C5.01 6.33 4.02 6.66 3 7 C0 2.25 0 2.25 0 0 Z " fill="#0A96D2" transform="translate(296,44)"/>
<path d="M0 0 C0.6875 1.625 0.6875 1.625 1 4 C-0.4375 7.25 -0.4375 7.25 -2 10 C-3.26066301 6.21801096 -2.42292658 4.63636792 -1 1 C-0.67 0.67 -0.34 0.34 0 0 Z " fill="#186BAA" transform="translate(129,71)"/>
<path d="M0 0 C1.32 0.99 2.64 1.98 4 3 C3.34 4.32 2.68 5.64 2 7 C1.34 6.67 0.68 6.34 0 6 C-0.6875 3.5 -0.6875 3.5 -1 1 C-0.67 0.67 -0.34 0.34 0 0 Z " fill="#1A65AF" transform="translate(126,60)"/>
<path d="M0 0 C0.33 1.32 0.66 2.64 1 4 C0.01 4 -0.98 4 -2 4 C-2.33 4.66 -2.66 5.32 -3 6 C-3.66 4.68 -4.32 3.36 -5 2 C-3.35 1.34 -1.7 0.68 0 0 Z " fill="#52B9D7" transform="translate(289,57)"/>
<path d="M0 0 C1.32 0.66 2.64 1.32 4 2 C3.34 3.32 2.68 4.64 2 6 C0.68 4.68 -0.64 3.36 -2 2 C-1.34 1.34 -0.68 0.68 0 0 Z " fill="#EDF8FA" transform="translate(279,56)"/>
<path d="M0 0 C0 4.38968456 -2.12805101 5.76905739 -5 9 C-5.33 8.01 -5.66 7.02 -6 6 C-4.02 4.02 -2.04 2.04 0 0 Z " fill="#E8FDFF" transform="translate(159,51)"/>
<path d="M0 0 C1.65 0 3.3 0 5 0 C4.34 0.66 3.68 1.32 3 2 C3 2.99 3 3.98 3 5 C1.68 4.34 0.36 3.68 -1 3 C-0.67 2.01 -0.34 1.02 0 0 Z " fill="#F6F6F7" transform="translate(230,30)"/>
<path d="M0 0 C0.99 0.33 1.98 0.66 3 1 C3 2.32 3 3.64 3 5 C2.34 5 1.68 5 1 5 C1 4.34 1 3.68 1 3 C-0.65 3.33 -2.3 3.66 -4 4 C-2.68 2.68 -1.36 1.36 0 0 Z " fill="#0E87C9" transform="translate(255,70)"/>
</svg>
